# xmcd
#
# Track frame offsets: 
#        150
#        15347
#        30088
#        44718
#        61536
#        79304
#        97048
#        114972
#        132277
#        149134
#
# Disc length: 2261 seconds
#
# Revision: 0
# Processed by: cddbd v1.5.2PL0 Copyright (c) Steve Scherf et al.
# Submitted via: ExactAudioCopy v1.0b6
#
DISCID=7d08d30a
DTITLE=Denai Moore - We used to bloom
DYEAR=2017
DGENRE=Funk
TTITLE0=Let it happen
TTITLE1=Desolately devoted
TTITLE2=Trickle
TTITLE3=Twilight
TTITLE4=Do they care ?
TTITLE5=Leave it up to you
TTITLE6=Bring you shame
TTITLE7=Does it get easier ?
TTITLE8=Poor person
TTITLE9=All the way [ft Kwabs]
EXTD=
EXTT0=
EXTT1=
EXTT2=
EXTT3=
EXTT4=
EXTT5=
EXTT6=
EXTT7=
EXTT8=
EXTT9=
PLAYORDER=
